<?xml version="1.0" encoding="utf-8" ?><svg xmlns="http://www.w3.org/2000/svg" xmlns:xlink="http://www.w3.org/1999/xlink" width="1024" height="1024" viewBox="0 0 1024 1024"><defs><linearGradient id="gradient_0" gradientUnits="userSpaceOnUse" x1="511.79388" y1="1022.025" x2="511.70621" y2="1.474812"><stop offset="0" stop-color="#1A1A1A"/><stop offset="1" stop-color="#464646"/></linearGradient></defs><path fill="url(#gradient_0)" d="M0 0L227.067 0L798.425 0L1024 0L1024 229.577L1024 790.734L1024 1024L795.922 1024L226.637 1024L0 1024L0 794.454L0 230.11L0 0Z"/><path fill="#E9E9E8" d="M0 794.454L0.102735 795.015C1.70204 804.134 1.99139 814.098 3.29847 823.385C12.051 885.575 44.0645 943.265 95.8844 980.001C125.102 1000.63 158.663 1014.29 193.985 1019.92C203.978 1021.58 218.355 1022.29 226.637 1024L0 1024L0 794.454Z"/><path fill="#E9E9E8" d="M795.922 1024C799.037 1023.13 807.016 1022.64 810.402 1022.39C817.181 1021.89 822.967 1021.26 829.672 1020.22C864.191 1014.65 897.056 1001.53 925.927 981.806C983.546 942.132 1014.93 879.856 1022.08 811.396C1022.77 804.8 1022.69 797.135 1024 790.734L1024 1024L795.922 1024Z"/><path fill="#E9E9E8" d="M798.425 0L1024 0L1024 229.577C1023.11 225.725 1022.72 217.786 1022.35 213.587C1021.8 208.08 1021.07 202.593 1020.14 197.137C1014.84 162.096 1001.93 128.639 982.323 99.1167C951.077 52.8146 903.397 20.1238 848.944 7.66978C839.117 5.46658 829.178 3.79544 819.17 2.66366C813.012 1.91917 804.978 1.31046 799.07 0.13416L798.425 0Z"/><path fill="#E9E9E8" d="M0 0L227.067 0C220.608 1.30172 213.535 1.14026 206.989 2.00633C197.111 3.31314 187.163 4.99207 177.429 7.12272C123.12 18.8922 75.2303 50.6723 43.2855 96.1422C22.8616 126.258 9.37196 160.529 3.78847 196.487C2.31148 205.891 1.67066 222.836 0 230.11L0 0Z"/><path fill="#292929" d="M448.432 234.732C458.275 230.043 468.999 225.222 479.506 222.479C519.628 212.003 565.892 219.551 604.347 233.167C680.25 260.72 742.189 317.152 776.67 390.169C797.776 434.474 810.017 490.045 793.147 537.279C779.388 575.802 753.03 608.26 717.805 628.634C715.868 629.754 713.195 631.336 711.492 632.651C708.47 638.365 703.635 645.697 700.127 651.264C691.802 664.462 683.186 677.475 674.286 690.294C668.487 698.68 658.505 713.603 652.105 720.888C650.146 723.689 648.898 725.236 646.637 727.809C643.978 731.562 640.114 735.275 636.838 738.551C632.917 743.763 622.28 754.827 617.064 758.962C615.298 761.228 608.484 767.224 605.953 768.634C561.506 803.008 516.9 813.646 461.554 802.04C382.575 785.675 313.311 738.65 268.958 671.283C238.937 625.323 213.813 560.495 225.277 504.863C232.638 469.147 258.268 431.855 286.39 409.125C295.034 402.139 304.075 396.363 313.419 390.291C315.829 384.56 322.559 374.375 326.077 368.817C337.93 350.106 350.437 331.817 363.575 313.986C369.797 305.477 379.888 291.601 387.689 284.424C390.591 279.643 399.809 270.738 404.121 266.732C406.54 264.21 414.035 257.637 416.861 255.82C425.163 248.198 438.483 239.955 448.432 234.732Z"/><defs><linearGradient id="gradient_1" gradientUnits="userSpaceOnUse" x1="430.83502" y1="427.29816" x2="803.19415" y2="463.44031"><stop offset="0" stop-color="#DA8A26"/><stop offset="1" stop-color="#FAC345"/></linearGradient></defs><path fill="url(#gradient_1)" d="M448.432 234.732C458.275 230.043 468.999 225.222 479.506 222.479C519.628 212.003 565.892 219.551 604.347 233.167C680.25 260.72 742.189 317.152 776.67 390.169C797.776 434.474 810.017 490.045 793.147 537.279C779.388 575.802 753.03 608.26 717.805 628.634C715.868 629.754 713.195 631.336 711.492 632.651C708.47 638.365 703.635 645.697 700.127 651.264C691.802 664.462 683.186 677.475 674.286 690.294C668.487 698.68 658.505 713.603 652.105 720.888L651.731 720.287C652.688 718.17 655.42 715.325 656.949 712.934L656.579 712.668C655.911 712.857 652.536 713.752 651.941 713.612C646.146 712.246 639.434 709.106 633.936 706.786C631.289 705.668 630.533 702.612 628.717 701.773C625.877 700.462 622.996 699.332 620.125 698.065C616.408 696.425 612.871 693.984 609.264 692.389C600.624 688.559 590.78 685.007 583.561 678.734C580.892 676.415 581.59 668.714 583.619 665.816C585.661 665.114 597.442 663.991 600.926 663.228C616.455 658.582 632.162 648.84 644.602 638.425C661.462 620.389 673.524 602.875 681.537 579.206C691.509 549.794 691.38 517.895 681.17 488.565C677.751 478.757 674.174 471.717 669.556 462.459C664.788 455.415 659.877 447.762 654.617 441.117C626.566 405.68 593.667 388.235 551.638 374.19C517.815 362.744 457.815 352.869 422.887 360.757C416.596 357.963 374.738 368.084 366.233 370.51C358.435 372.798 350.729 375.388 343.132 378.275C334.17 381.725 322.058 387.486 313.419 390.291C315.829 384.56 322.559 374.375 326.077 368.817C337.93 350.106 350.437 331.817 363.575 313.986C369.797 305.477 379.888 291.601 387.689 284.424C390.591 279.643 399.809 270.738 404.121 266.732C406.54 264.21 414.035 257.637 416.861 255.82C425.163 248.198 438.483 239.955 448.432 234.732Z"/><defs><linearGradient id="gradient_2" gradientUnits="userSpaceOnUse" x1="371.82733" y1="396.09238" x2="723.94586" y2="487.58521"><stop offset="0" stop-color="#A1551A"/><stop offset="1" stop-color="#E18527"/></linearGradient></defs><path fill="url(#gradient_2)" d="M416.861 255.82C425.163 248.198 438.483 239.955 448.432 234.732C454.463 243.927 475.112 249.592 477.974 257.767C554.511 272.38 620.768 321.061 664.178 384.248C716.417 460.287 741.147 576.619 650.31 635.55C648.114 636.975 647.257 637.788 644.602 638.425C661.462 620.389 673.524 602.875 681.537 579.206C691.509 549.794 691.38 517.895 681.17 488.565C677.751 478.757 674.174 471.717 669.556 462.459C664.788 455.415 659.877 447.762 654.617 441.117C626.566 405.68 593.667 388.235 551.638 374.19C517.815 362.744 457.815 352.869 422.887 360.757C416.596 357.963 374.738 368.084 366.233 370.51C358.435 372.798 350.729 375.388 343.132 378.275C334.17 381.725 322.058 387.486 313.419 390.291C315.829 384.56 322.559 374.375 326.077 368.817C337.93 350.106 350.437 331.817 363.575 313.986C369.797 305.477 379.888 291.601 387.689 284.424C390.591 279.643 399.809 270.738 404.121 266.732C406.54 264.21 414.035 257.637 416.861 255.82Z"/><defs><linearGradient id="gradient_3" gradientUnits="userSpaceOnUse" x1="388.42636" y1="440.17029" x2="484.91904" y2="304.36295"><stop offset="0" stop-color="#9D5817"/><stop offset="1" stop-color="#E5A52C"/></linearGradient></defs><path fill="url(#gradient_3)" d="M404.121 266.732C406.265 267.831 405.866 268.363 407.62 269.969C410.315 272.436 410.922 273.494 410.024 276.999C420.449 275.009 438.14 273.862 448.578 276.036C445.387 277.559 442.21 277.316 438.712 277.254C448.293 283.997 456.828 288.947 467.028 294.633C492.754 308.974 519.07 327.638 539.439 348.94C543.298 352.975 552.194 368.94 551.638 374.19C517.815 362.744 457.815 352.869 422.887 360.757C416.596 357.963 374.738 368.084 366.233 370.51C358.435 372.798 350.729 375.388 343.132 378.275C334.17 381.725 322.058 387.486 313.419 390.291C315.829 384.56 322.559 374.375 326.077 368.817C337.93 350.106 350.437 331.817 363.575 313.986C369.797 305.477 379.888 291.601 387.689 284.424C390.591 279.643 399.809 270.738 404.121 266.732Z"/><path fill="#9F5619" d="M404.121 266.732C406.265 267.831 405.866 268.363 407.62 269.969C410.315 272.436 410.922 273.494 410.024 276.999C401.446 279.009 395.438 282.226 387.689 284.424C390.591 279.643 399.809 270.738 404.121 266.732Z"/><path fill="#F1AD32" d="M448.578 276.036C514.09 282.477 581.272 335.693 621.259 385.278C631.495 397.969 668.923 448.572 669.556 462.459C664.788 455.415 659.877 447.762 654.617 441.117C626.566 405.68 593.667 388.235 551.638 374.19C552.194 368.94 543.298 352.975 539.439 348.94C519.07 327.638 492.754 308.974 467.028 294.633C456.828 288.947 448.293 283.997 438.712 277.254C442.21 277.316 445.387 277.559 448.578 276.036Z"/><path fill="#CD8529" d="M416.861 255.82C425.163 248.198 438.483 239.955 448.432 234.732C454.463 243.927 475.112 249.592 477.974 257.767C462.754 255.044 450.36 253.871 434.869 254.555C429.117 254.809 423.115 255.783 417.477 255.821L416.861 255.82Z"/><defs><linearGradient id="gradient_4" gradientUnits="userSpaceOnUse" x1="666.57233" y1="611.83527" x2="619.83118" y2="699.33313"><stop offset="0" stop-color="#A46018"/><stop offset="1" stop-color="#C48420"/></linearGradient></defs><path fill="url(#gradient_4)" d="M600.926 663.228C603.671 665.045 615.103 662.609 618.595 662.08C651.5 657.093 681.359 646.469 711.492 632.651C708.47 638.365 703.635 645.697 700.127 651.264C691.802 664.462 683.186 677.475 674.286 690.294C668.487 698.68 658.505 713.603 652.105 720.888L651.731 720.287C652.688 718.17 655.42 715.325 656.949 712.934L656.579 712.668C655.911 712.857 652.536 713.752 651.941 713.612C646.146 712.246 639.434 709.106 633.936 706.786C631.289 705.668 630.533 702.612 628.717 701.773C625.877 700.462 622.996 699.332 620.125 698.065C616.408 696.425 612.871 693.984 609.264 692.389C600.624 688.559 590.78 685.007 583.561 678.734C580.892 676.415 581.59 668.714 583.619 665.816C585.661 665.114 597.442 663.991 600.926 663.228Z"/><defs><linearGradient id="gradient_5" gradientUnits="userSpaceOnUse" x1="615.95233" y1="594.71429" x2="220.21065" y2="565.38818"><stop offset="0" stop-color="#D88823"/><stop offset="1" stop-color="#FCC346"/></linearGradient></defs><path fill="url(#gradient_5)" d="M313.419 390.291C322.058 387.486 334.17 381.725 343.132 378.275C350.729 375.388 358.435 372.798 366.233 370.51C374.738 368.084 416.596 357.963 422.887 360.757C407.142 366.374 395.872 371.11 382.931 382.126C376.102 389.001 369.58 395.344 363.73 403.172C345.192 427.976 335.193 458.416 335.147 489.341C335.12 508.06 339.729 529.256 347.591 546.025C350.841 552.957 354.938 559.654 358.21 566.538C368.554 581.136 377.829 593.389 391.337 605.513C427.351 637.837 476.762 652.782 523.444 661.239C539.125 664.08 567.791 666.81 583.619 665.816C581.59 668.714 580.892 676.415 583.561 678.734C590.78 685.007 600.624 688.559 609.264 692.389C612.871 693.984 616.408 696.425 620.125 698.065C622.996 699.332 625.877 700.462 628.717 701.773C630.533 702.612 631.289 705.668 633.936 706.786C639.434 709.106 646.146 712.246 651.941 713.612C652.536 713.752 655.911 712.857 656.579 712.668L656.949 712.934C655.42 715.325 652.688 718.17 651.731 720.287L652.105 720.888C650.146 723.689 648.898 725.236 646.637 727.809C643.978 731.562 640.114 735.275 636.838 738.551C632.917 743.763 622.28 754.827 617.064 758.962C615.298 761.228 608.484 767.224 605.953 768.634C561.506 803.008 516.9 813.646 461.554 802.04C382.575 785.675 313.311 738.65 268.958 671.283C238.937 625.323 213.813 560.495 225.277 504.863C232.638 469.147 258.268 431.855 286.39 409.125C295.034 402.139 304.075 396.363 313.419 390.291Z"/><defs><linearGradient id="gradient_6" gradientUnits="userSpaceOnUse" x1="558.71881" y1="600.1972" x2="452.29807" y2="692.85699"><stop offset="0" stop-color="#B87B22"/><stop offset="1" stop-color="#FEBB37"/></linearGradient></defs><path fill="url(#gradient_6)" d="M358.21 566.538C368.554 581.136 377.829 593.389 391.337 605.513C427.351 637.837 476.762 652.782 523.444 661.239C539.125 664.08 567.791 666.81 583.619 665.816C581.59 668.714 580.892 676.415 583.561 678.734C590.78 685.007 600.624 688.559 609.264 692.389C612.871 693.984 616.408 696.425 620.125 698.065C622.996 699.332 625.877 700.462 628.717 701.773C630.533 702.612 631.289 705.668 633.936 706.786C639.434 709.106 646.146 712.246 651.941 713.612C652.536 713.752 655.911 712.857 656.579 712.668L656.949 712.934C655.42 715.325 652.688 718.17 651.731 720.287L652.105 720.888C650.146 723.689 648.898 725.236 646.637 727.809C643.978 731.562 640.114 735.275 636.838 738.551C630.592 740.416 625.355 743.921 618.175 745.788C537.475 767.929 448.169 693.261 401.826 635.414C394.05 625.706 356.862 577.902 358.21 566.538Z"/><path fill="#CD8529" d="M646.637 727.809L646.372 727.18L646.696 726.49L646.496 726.144C641.969 724.718 629.111 718.798 631.53 712.759L632.579 712.434C636.599 713.9 649.015 718.048 651.731 720.287L652.105 720.888C650.146 723.689 648.898 725.236 646.637 727.809Z"/><defs><linearGradient id="gradient_7" gradientUnits="userSpaceOnUse" x1="634.823" y1="587.50385" x2="308.48959" y2="563.05707"><stop offset="0" stop-color="#A1551B"/><stop offset="1" stop-color="#E28828"/></linearGradient></defs><path fill="url(#gradient_7)" d="M605.953 768.634C589.626 767.749 574.844 769.527 558.019 767.386C497.986 759.428 441.311 726.233 398.268 684.412C328.525 616.65 272.405 486.515 351.82 404.468C357.733 398.36 375.067 382.223 382.931 382.126C376.102 389.001 369.58 395.344 363.73 403.172C345.192 427.976 335.193 458.416 335.147 489.341C335.12 508.06 339.729 529.256 347.591 546.025C350.841 552.957 354.938 559.654 358.21 566.538C356.862 577.902 394.05 625.706 401.826 635.414C448.169 693.261 537.475 767.929 618.175 745.788C625.355 743.921 630.592 740.416 636.838 738.551C632.917 743.763 622.28 754.827 617.064 758.962C615.298 761.228 608.484 767.224 605.953 768.634Z"/><path fill="#9F5619" d="M618.175 745.788C625.355 743.921 630.592 740.416 636.838 738.551C632.917 743.763 622.28 754.827 617.064 758.962C618.201 757.098 622.197 752.65 622.545 751.991L618.814 752.746L618.2 752.311C618.665 751.118 619.116 749.92 619.553 748.716L618.175 745.788Z"/><defs><linearGradient id="gradient_8" gradientUnits="userSpaceOnUse" x1="494.67371" y1="499.95978" x2="550.22864" y2="524.7099"><stop offset="0" stop-color="#111057"/><stop offset="1" stop-color="#772FB5"/></linearGradient></defs><path fill="url(#gradient_8)" d="M511.815 435.034C517.796 435.032 521.296 435.35 527.203 436.367C545.607 439.867 563.743 451.831 574.288 467.348C574.721 467.979 575.148 468.615 575.568 469.256C598.755 508.571 588.969 555.15 549.008 579.131C542.396 583.099 532.485 587.14 524.689 587.552C520.554 588.341 516.668 588.538 512.488 588.833C499.392 589.841 476.622 582.016 466.671 573.474C465.702 572.736 464.759 571.965 463.844 571.16C447.402 556.66 437.456 537.495 436.205 515.453C435.198 495.154 442.27 475.283 455.876 460.185C471.763 442.494 488.672 436.341 511.815 435.034Z"/><path fill="#0B94F2" d="M466.671 573.474C465.702 572.736 464.759 571.965 463.844 571.16C447.402 556.66 437.456 537.495 436.205 515.453C435.198 495.154 442.27 475.283 455.876 460.185C471.763 442.494 488.672 436.341 511.815 435.034L512.05 460.989C512.027 470.163 512.02 479.341 511.916 488.513C511.818 497.144 511.297 507.441 512.118 515.985C512.728 520.063 512.546 524.327 512.625 528.448C513.014 548.552 511.446 568.762 512.488 588.833C499.392 589.841 476.622 582.016 466.671 573.474Z"/><path fill="#0A3FF8" d="M466.671 573.474C469.85 571.039 472.746 560.611 474.092 556.287C479.021 540.449 497.512 523.116 512.118 515.985C512.728 520.063 512.546 524.327 512.625 528.448C513.014 548.552 511.446 568.762 512.488 588.833C499.392 589.841 476.622 582.016 466.671 573.474Z"/><defs><linearGradient id="gradient_9" gradientUnits="userSpaceOnUse" x1="547.23016" y1="528.39563" x2="580.04016" y2="543.4989"><stop offset="0" stop-color="#772EB4"/><stop offset="1" stop-color="#CB4DE4"/></linearGradient></defs><path fill="url(#gradient_9)" d="M575.568 469.256C598.755 508.571 588.969 555.15 549.008 579.131C542.396 583.099 532.485 587.14 524.689 587.552C522.851 587.231 522.646 587.876 521.184 587.29C522.237 583.072 531.661 564.644 534.014 559.772C542.076 543.088 549.859 526.271 557.358 509.327C560.218 502.78 572.196 472.687 575.568 469.256Z"/><path fill="#151353" d="M511.815 435.034C517.796 435.032 521.296 435.35 527.203 436.367C525.654 436.465 524.127 436.304 523.051 437.261C521.662 441.205 517.05 462.612 512.05 460.989L511.815 435.034Z"/></svg>