<?xml version="1.0" encoding="utf-8" ?><svg xmlns="http://www.w3.org/2000/svg" xmlns:xlink="http://www.w3.org/1999/xlink" width="1024" height="1024" viewBox="0 0 1024 1024"><path fill="#F1F1EF" d="M416.995 255.786C421.667 251.479 429.291 246.245 434.672 242.776C463.088 224.457 493.958 215.822 527.87 217.686C604.064 221.875 675.947 259.563 726.897 315.823C762.67 355.324 789.037 405.805 798.49 458.536C800.605 470.33 800.922 487.909 800.431 499.738C798.779 539.515 775.733 581.099 746.442 607.453C740.647 612.667 734.854 617.216 728.558 621.774C724.948 624.388 713.556 630.284 711.354 632.72C698.585 654.395 683.436 676.871 669.083 697.585C667.811 699.42 661.642 708.502 660.395 709.57C656.041 717.134 642.811 732.619 636.858 739.058C634.815 741.475 629.117 748.133 626.819 749.624C621.217 755.613 613.044 763.163 606.567 768.175C604.236 770.115 602.472 771.584 599.966 773.307C571.912 794.741 537.615 806.407 502.31 806.526C483.391 806.488 468.495 803.851 450.161 799.307C395.64 785.799 345.939 757.423 306.591 717.339C259.571 669.983 222.611 598.683 222.592 530.486C223.382 479.459 255.497 430.942 296.064 401.781C300.789 398.385 309.061 394.424 312.631 390.555C326.554 366.716 344.035 341.556 360.051 318.99C367.382 308.66 378.291 293.577 387.048 284.796C391.955 277.707 410.071 261.167 416.995 255.786Z"/><defs><linearGradient id="gradient_0" gradientUnits="userSpaceOnUse" x1="408.10373" y1="429.73761" x2="802.22766" y2="455.36877"><stop offset="0" stop-color="#D58623"/><stop offset="1" stop-color="#F9C245"/></linearGradient></defs><path fill="url(#gradient_0)" d="M416.995 255.786C421.667 251.479 429.291 246.245 434.672 242.776C463.088 224.457 493.958 215.822 527.87 217.686C604.064 221.875 675.947 259.563 726.897 315.823C762.67 355.324 789.037 405.805 798.49 458.536C800.605 470.33 800.922 487.909 800.431 499.738C798.779 539.515 775.733 581.099 746.442 607.453C740.647 612.667 734.854 617.216 728.558 621.774C724.948 624.388 713.556 630.284 711.354 632.72C708.936 633.211 694.304 640.353 690.255 641.99C666.148 651.734 640.368 659.253 614.554 662.638C610.899 663.117 604.289 663.801 600.839 663.533C623.758 655.384 635.451 647.203 652.233 630.58C663.155 616.56 670.691 606.478 677.678 589.484C690.694 557.823 692.686 523.796 682.104 491.046C678.746 480.652 673.799 471.891 669.69 462.062C663.058 452.895 657.621 444.255 650.231 435.587C623.027 403.678 591.025 387.297 552.086 374.377C514.642 361.811 462.34 353.827 423.191 360.375C420.499 359.835 415.114 360.535 412.183 360.893C387.826 363.865 363.767 370.335 340.856 379.029C336.471 380.692 315.19 390.389 312.631 390.555C326.554 366.716 344.035 341.556 360.051 318.99C367.382 308.66 378.291 293.577 387.048 284.796C391.955 277.707 410.071 261.167 416.995 255.786Z"/><path fill="#C87422" d="M416.995 255.786C422.408 255.68 427.845 254.842 433.274 254.631C452.649 253.878 472.428 255.095 491.109 260.744C504.407 263.184 516.583 267.828 528.982 272.984C582.975 295.673 629.314 333.393 662.487 381.659C695.856 429.933 718.941 491.661 708.193 551.109C702.805 580.913 684.922 610.648 660.181 628.584C656.014 631.605 653.173 632.426 648.935 636.404C648.951 634.8 651.683 633.488 652.233 630.58C663.155 616.56 670.691 606.478 677.678 589.484C690.694 557.823 692.686 523.796 682.104 491.046C678.746 480.652 673.799 471.891 669.69 462.062C663.058 452.895 657.621 444.255 650.231 435.587C623.027 403.678 591.025 387.297 552.086 374.377C514.642 361.811 462.34 353.827 423.191 360.375C420.499 359.835 415.114 360.535 412.183 360.893C387.826 363.865 363.767 370.335 340.856 379.029C336.471 380.692 315.19 390.389 312.631 390.555C326.554 366.716 344.035 341.556 360.051 318.99C367.382 308.66 378.291 293.577 387.048 284.796C391.955 277.707 410.071 261.167 416.995 255.786Z"/><defs><linearGradient id="gradient_1" gradientUnits="userSpaceOnUse" x1="386.32224" y1="441.85217" x2="485.79037" y2="304.44125"><stop offset="0" stop-color="#9C5814"/><stop offset="1" stop-color="#E3A32D"/></linearGradient></defs><path fill="url(#gradient_1)" d="M387.048 284.796C391.357 283.784 399.704 280.126 404.588 278.553C418.958 273.923 438.491 273.8 453.203 276.461C447.93 276.963 444.444 277.315 439.102 277.157C444.075 280.629 448.927 284.129 454.28 287.466C464.594 293.895 476.84 298.269 486.577 305.81C508.166 322.528 537.309 338.287 548.741 364.174C550.245 367.579 551.659 370.972 552.086 374.377C514.642 361.811 462.34 353.827 423.191 360.375C420.499 359.835 415.114 360.535 412.183 360.893C387.826 363.865 363.767 370.335 340.856 379.029C336.471 380.692 315.19 390.389 312.631 390.555C326.554 366.716 344.035 341.556 360.051 318.99C367.382 308.66 378.291 293.577 387.048 284.796Z"/><path fill="#EDAC33" d="M453.203 276.461C467.375 277.169 479.313 282.432 492.389 286.641C500.714 290.728 509.233 294.048 517.58 298.464C579.171 331.045 629.152 385.713 662.821 446.202C664.927 449.986 669.285 458.064 669.69 462.062C663.058 452.895 657.621 444.255 650.231 435.587C623.027 403.678 591.025 387.297 552.086 374.377C551.659 370.972 550.245 367.579 548.741 364.174C537.309 338.287 508.166 322.528 486.577 305.81C476.84 298.269 464.594 293.895 454.28 287.466C448.927 284.129 444.075 280.629 439.102 277.157C444.444 277.315 447.93 276.963 453.203 276.461Z"/><path fill="#A05619" d="M416.995 255.786C422.408 255.68 427.845 254.842 433.274 254.631C452.649 253.878 472.428 255.095 491.109 260.744C489.234 261.138 481.374 259.222 478.721 258.57C470.959 256.66 436.17 252.369 430.433 256.412C429.835 260.712 432.55 263.476 429.945 265.815C425.161 267.105 416.16 264.716 412.662 261.087C410.661 262.596 407.194 264.893 406.329 267.103C406.924 270.554 407.335 273.089 408.324 276.453C410.831 276.445 413.403 275.18 416.489 274.824C420.968 274.307 427.463 274.807 431.532 273.746C435.044 269.952 436.275 274.11 441.754 274.394C452.828 274.967 464.252 276.985 474.962 279.828C480.695 281.528 485.673 283.882 492.006 285.655L492.557 286.311L492.389 286.641C479.313 282.432 467.375 277.169 453.203 276.461C438.491 273.8 418.958 273.923 404.588 278.553C399.704 280.126 391.357 283.784 387.048 284.796C391.955 277.707 410.071 261.167 416.995 255.786Z"/><defs><linearGradient id="gradient_2" gradientUnits="userSpaceOnUse" x1="611.07861" y1="593.20465" x2="220.49448" y2="567.91077"><stop offset="0" stop-color="#D78922"/><stop offset="1" stop-color="#FAC246"/></linearGradient></defs><path fill="url(#gradient_2)" d="M312.631 390.555C315.19 390.389 336.471 380.692 340.856 379.029C363.767 370.335 387.826 363.865 412.183 360.893C415.114 360.535 420.499 359.835 423.191 360.375C405.936 367.156 398.061 369.78 382.998 382.146C344.772 418.827 327.377 465.347 338.329 518.53C342.044 536.573 348.974 549.467 357.317 565.466C368.655 580.664 375.32 590.748 389.85 604.124C427.064 638.381 479.511 654.096 528.366 662.163C549.541 665.659 574.729 667.018 595.74 664.433L600.839 663.533C604.289 663.801 610.899 663.117 614.554 662.638C640.368 659.253 666.148 651.734 690.255 641.99C694.304 640.353 708.936 633.211 711.354 632.72C698.585 654.395 683.436 676.871 669.083 697.585C667.811 699.42 661.642 708.502 660.395 709.57C656.041 717.134 642.811 732.619 636.858 739.058C634.815 741.475 629.117 748.133 626.819 749.624C621.217 755.613 613.044 763.163 606.567 768.175C604.236 770.115 602.472 771.584 599.966 773.307C571.912 794.741 537.615 806.407 502.31 806.526C483.391 806.488 468.495 803.851 450.161 799.307C395.64 785.799 345.939 757.423 306.591 717.339C259.571 669.983 222.611 598.683 222.592 530.486C223.382 479.459 255.497 430.942 296.064 401.781C300.789 398.385 309.061 394.424 312.631 390.555Z"/><defs><linearGradient id="gradient_3" gradientUnits="userSpaceOnUse" x1="575.06268" y1="590.68292" x2="450.04965" y2="693.06537"><stop offset="0" stop-color="#B3761F"/><stop offset="1" stop-color="#FBBA37"/></linearGradient></defs><path fill="url(#gradient_3)" d="M357.317 565.466C368.655 580.664 375.32 590.748 389.85 604.124C427.064 638.381 479.511 654.096 528.366 662.163C549.541 665.659 574.729 667.018 595.74 664.433L600.839 663.533C604.289 663.801 610.899 663.117 614.554 662.638C640.368 659.253 666.148 651.734 690.255 641.99C694.304 640.353 708.936 633.211 711.354 632.72C698.585 654.395 683.436 676.871 669.083 697.585C667.811 699.42 661.642 708.502 660.395 709.57C656.041 717.134 642.811 732.619 636.858 739.058C634.815 741.475 629.117 748.133 626.819 749.624C624.389 750.094 624.423 750.338 622.285 749.296C620.952 747.679 620.951 747.132 620.372 745.039C609.775 748.364 604.516 748.663 593.477 749.361C588.663 749.458 583.701 749.406 578.875 749.417C578.373 749.228 578.581 749.273 577.929 749.218C534.172 745.532 488.932 719.217 456.05 690.851C441.065 677.908 426.876 664.071 413.559 649.417C402.133 636.823 358.464 581.264 357.317 565.466Z"/><defs><linearGradient id="gradient_4" gradientUnits="userSpaceOnUse" x1="666.74963" y1="613.29785" x2="626.30579" y2="696.81531"><stop offset="0" stop-color="#A36117"/><stop offset="1" stop-color="#C3831F"/></linearGradient></defs><path fill="url(#gradient_4)" d="M600.839 663.533C604.289 663.801 610.899 663.117 614.554 662.638C640.368 659.253 666.148 651.734 690.255 641.99C694.304 640.353 708.936 633.211 711.354 632.72C698.585 654.395 683.436 676.871 669.083 697.585C667.811 699.42 661.642 708.502 660.395 709.57C660.174 706.618 664.672 703.408 665.348 700.794C662.07 702.207 659.462 710.059 655.45 710.398C652.801 710.622 650.42 706.44 646.191 704.197C639.575 700.56 632.855 696.005 626.021 692.871C615.412 688.007 605.171 685.405 596.244 677.447C595.003 676.341 593.657 676.016 593.42 674.349L595.162 673.168L594.64 672.414C593.191 672.618 587.661 670.36 587.077 669.254C588.518 668.342 591.168 668.88 593.479 668.232L592.949 666.619C593.884 665.896 594.815 665.168 595.74 664.433L600.839 663.533Z"/><path fill="#A05619" d="M620.372 745.039C624.436 743.786 634.483 738.58 636.858 739.058C634.815 741.475 629.117 748.133 626.819 749.624C624.389 750.094 624.423 750.338 622.285 749.296C620.952 747.679 620.951 747.132 620.372 745.039Z"/><defs><linearGradient id="gradient_5" gradientUnits="userSpaceOnUse" x1="636.28119" y1="587.0769" x2="308.5929" y2="562.45123"><stop offset="0" stop-color="#9E571B"/><stop offset="1" stop-color="#E18927"/></linearGradient></defs><path fill="url(#gradient_5)" d="M593.802 768.589C587.065 768.086 578.546 768.658 571.546 768.336C558.978 767.758 545.747 765.965 533.56 762.8C455.751 741.687 391.185 690.82 349.76 622.178C302.89 544.515 290.506 440.64 376.348 384.263C378.229 383.028 380.824 381.584 382.998 382.146C344.772 418.827 327.377 465.347 338.329 518.53C342.044 536.573 348.974 549.467 357.317 565.466C358.464 581.264 402.133 636.823 413.559 649.417C426.876 664.071 441.065 677.908 456.05 690.851C488.932 719.217 534.172 745.532 577.929 749.218C578.581 749.273 578.373 749.228 578.875 749.417C583.701 749.406 588.663 749.458 593.477 749.361C604.516 748.663 609.775 748.364 620.372 745.039C620.951 747.132 620.952 747.679 622.285 749.296C624.423 750.338 624.389 750.094 626.819 749.624C621.217 755.613 613.044 763.163 606.567 768.175C604.236 770.115 602.472 771.584 599.966 773.307C599.693 769.96 596.574 769.115 593.802 768.589Z"/><path fill="#A05619" d="M594.779 768.336C593.299 767.875 592.42 767.868 590.884 767.693L592.555 767.398C592.237 764.498 592.693 758.252 596.163 756.888C599.655 755.516 606.006 761.124 606.851 764.314C607.239 765.779 606.043 766.798 605.184 767.934L606.567 768.175C604.236 770.115 602.472 771.584 599.966 773.307C599.693 769.96 596.574 769.115 593.802 768.589L594.779 768.336Z"/><path fill="#C87422" d="M605.184 767.934L606.567 768.175C604.236 770.115 602.472 771.584 599.966 773.307C599.693 769.96 596.574 769.115 593.802 768.589L594.779 768.336C598.296 768.588 601.698 768.368 605.184 767.934Z"/><path fill="#A05619" d="M578.875 749.417C583.701 749.406 588.663 749.458 593.477 749.361C594.573 749.517 595.288 749.571 596.356 749.891L594.577 750.229C594.583 753.061 594.955 754.068 592.61 755.762C590.443 755.898 591.26 756.245 589.846 755.276L589.442 753.001C587.371 750.96 581.724 750.375 578.875 749.417Z"/><defs><linearGradient id="gradient_6" gradientUnits="userSpaceOnUse" x1="492.47321" y1="498.90741" x2="556.47736" y2="527.65131"><stop offset="0" stop-color="#090E52"/><stop offset="1" stop-color="#7F31B9"/></linearGradient></defs><path fill="url(#gradient_6)" d="M467.579 573.918C464.994 572.018 461.664 569.172 459.377 566.93C444.604 552.234 436.308 532.25 436.332 511.412C436.394 490.703 444.736 470.879 459.498 456.356C473.486 442.555 492.391 434.887 512.041 435.045C516.809 435.263 519.87 435.486 524.563 436.205C544.372 439.26 562.093 450.225 573.667 466.589C575.206 468.726 579.151 474.985 579.904 477.392C588.966 494.004 590.247 516.239 584.869 534.234C578.824 553.804 565.325 570.213 547.286 579.917C541.965 582.748 537.132 584.518 531.359 586.112C524.558 587.706 519.018 588.529 511.981 588.54C495.417 588.627 481.005 583.485 467.579 573.918Z"/><path fill="#0C94EF" d="M467.579 573.918C464.994 572.018 461.664 569.172 459.377 566.93C444.604 552.234 436.308 532.25 436.332 511.412C436.394 490.703 444.736 470.879 459.498 456.356C473.486 442.555 492.391 434.887 512.041 435.045C511.892 442.294 511.892 449.545 512.041 456.794L511.855 494.854C511.834 499.96 511.623 511.196 512.224 515.858C512.748 520.562 512.573 525.711 512.581 530.459C512.613 549.84 511.989 569.153 511.981 588.54C495.417 588.627 481.005 583.485 467.579 573.918Z"/><path fill="#093DF3" d="M467.579 573.918C472.412 564.419 473.881 552.726 480.201 543.976C488.026 533.143 500.064 521.585 512.224 515.858C512.748 520.562 512.573 525.711 512.581 530.459C512.613 549.84 511.989 569.153 511.981 588.54C495.417 588.627 481.005 583.485 467.579 573.918Z"/><defs><linearGradient id="gradient_7" gradientUnits="userSpaceOnUse" x1="551.94708" y1="530.32465" x2="580.13141" y2="543.3006"><stop offset="0" stop-color="#7D30B5"/><stop offset="1" stop-color="#C24AD8"/></linearGradient></defs><path fill="url(#gradient_7)" d="M579.904 477.392C588.966 494.004 590.247 516.239 584.869 534.234C578.824 553.804 565.325 570.213 547.286 579.917C541.965 582.748 537.132 584.518 531.359 586.112L530.4 585.434C529.044 578.848 536.482 569.063 538.465 562.931C541.95 552.156 546.46 543.174 551.954 533.336C554.697 528.426 556.304 521.528 559.21 516.523C565.116 506.836 571.779 484.652 579.904 477.392Z"/><path fill="#11124A" d="M512.041 435.045C516.809 435.263 519.87 435.486 524.563 436.205C523.272 436.499 522.811 436.641 521.51 436.401C519.923 438.293 519.671 448.684 512.579 456.628L512.041 456.794C511.892 449.545 511.892 442.294 512.041 435.045Z"/></svg>